<svg width="678" height="159" viewBox="0 0 678 159" fill="none" xmlns="http://www.w3.org/2000/svg">
<path d="M211.068 25.5455V107H201.205V35.8864H200.727L180.841 49.0909V39.0682L201.205 25.5455H211.068ZM263.131 25.5455V107H253.267V35.8864H252.79L232.903 49.0909V39.0682L253.267 25.5455H263.131Z" fill="url(#paint0_linear_0_1)"/>
<path d="M27.3636 24.4318C30.7045 24.4583 34.0455 25.0947 37.3864 26.3409C40.7273 27.5871 43.7765 29.6553 46.5341 32.5455C49.2917 35.4091 51.5057 39.3201 53.1761 44.2784C54.8466 49.2367 55.6818 55.4545 55.6818 62.9318C55.6818 70.1705 54.9924 76.6004 53.6136 82.2216C52.2614 87.8163 50.2992 92.536 47.7273 96.3807C45.1818 100.225 42.0795 103.142 38.4205 105.131C34.7879 107.119 30.678 108.114 26.0909 108.114C21.5303 108.114 17.4602 107.212 13.8807 105.409C10.3277 103.58 7.41099 101.047 5.13068 97.8125C2.87689 94.5511 1.43182 90.7727 0.795455 86.4773H10.5C11.375 90.2159 13.1117 93.3049 15.7102 95.7443C18.3352 98.1572 21.7955 99.3636 26.0909 99.3636C32.375 99.3636 37.3333 96.6193 40.9659 91.1307C44.625 85.642 46.4545 77.8864 46.4545 67.8636H45.8182C44.3333 70.0909 42.5701 72.0133 40.5284 73.6307C38.4867 75.2481 36.2197 76.4943 33.7273 77.3693C31.2348 78.2443 28.5833 78.6818 25.7727 78.6818C21.1061 78.6818 16.8239 77.5284 12.9261 75.2216C9.05492 72.8883 5.95265 69.6932 3.61932 65.6364C1.3125 61.553 0.159091 56.8864 0.159091 51.6364C0.159091 46.6515 1.27273 42.0909 3.5 37.9545C5.75379 33.7917 8.90909 30.4773 12.9659 28.0114C17.0492 25.5455 21.8485 24.3523 27.3636 24.4318ZM27.3636 33.1818C24.0227 33.1818 21.0133 34.017 18.3352 35.6875C15.6837 37.3314 13.5758 39.5587 12.0114 42.3693C10.4735 45.1534 9.70455 48.2424 9.70455 51.6364C9.70455 55.0303 10.447 58.1193 11.9318 60.9034C13.4432 63.661 15.4981 65.8617 18.0966 67.5057C20.7216 69.1231 23.7045 69.9318 27.0455 69.9318C29.5644 69.9318 31.911 69.4413 34.0852 68.4602C36.2595 67.4527 38.1553 66.0871 39.7727 64.3636C41.4167 62.6136 42.7027 60.6383 43.6307 58.4375C44.5587 56.2102 45.0227 53.8901 45.0227 51.4773C45.0227 48.2955 44.2538 45.3125 42.7159 42.5284C41.2045 39.7443 39.1099 37.4905 36.4318 35.767C33.7803 34.0436 30.7576 33.1818 27.3636 33.1818ZM97.4134 108.114C91.9512 108.114 87.1255 107.146 82.9361 105.21C78.7732 103.248 75.5251 100.557 73.1918 97.1364C70.8584 93.6894 69.705 89.7652 69.7315 85.3636C69.705 81.9167 70.3812 78.7348 71.7599 75.8182C73.1387 72.875 75.0213 70.4223 77.4077 68.4602C79.8206 66.4716 82.5118 65.2121 85.4815 64.6818V64.2045C81.5838 63.197 78.4815 61.0095 76.1747 57.642C73.8679 54.2481 72.7277 50.3901 72.7543 46.0682C72.7277 41.9318 73.7751 38.233 75.8963 34.9716C78.0175 31.7102 80.9342 29.1383 84.6463 27.2557C88.3849 25.3731 92.6406 24.4318 97.4134 24.4318C102.133 24.4318 106.349 25.3731 110.061 27.2557C113.773 29.1383 116.69 31.7102 118.811 34.9716C120.959 38.233 122.046 41.9318 122.072 46.0682C122.046 50.3901 120.866 54.2481 118.533 57.642C116.226 61.0095 113.163 63.197 109.345 64.2045V64.6818C112.288 65.2121 114.94 66.4716 117.3 68.4602C119.66 70.4223 121.542 72.875 122.947 75.8182C124.353 78.7348 125.069 81.9167 125.095 85.3636C125.069 89.7652 123.875 93.6894 121.516 97.1364C119.182 100.557 115.934 103.248 111.771 105.21C107.635 107.146 102.849 108.114 97.4134 108.114ZM97.4134 99.3636C101.099 99.3636 104.281 98.767 106.959 97.5739C109.637 96.3807 111.705 94.697 113.163 92.5227C114.622 90.3485 115.364 87.803 115.391 84.8864C115.364 81.8106 114.569 79.0928 113.004 76.733C111.44 74.3731 109.305 72.517 106.601 71.1648C103.923 69.8125 100.86 69.1364 97.4134 69.1364C93.9399 69.1364 90.8376 69.8125 88.1065 71.1648C85.402 72.517 83.2675 74.3731 81.7031 76.733C80.1652 79.0928 79.4096 81.8106 79.4361 84.8864C79.4096 87.803 80.1122 90.3485 81.544 92.5227C83.0024 94.697 85.0838 96.3807 87.7884 97.5739C90.4929 98.767 93.7012 99.3636 97.4134 99.3636ZM97.4134 60.7045C100.33 60.7045 102.915 60.1212 105.169 58.9545C107.449 57.7879 109.239 56.1572 110.538 54.0625C111.838 51.9678 112.5 49.5151 112.527 46.7045C112.5 43.947 111.851 41.5473 110.578 39.5057C109.305 37.4375 107.542 35.8466 105.288 34.733C103.035 33.5928 100.41 33.0227 97.4134 33.0227C94.3641 33.0227 91.6993 33.5928 89.419 34.733C87.1387 35.8466 85.3755 37.4375 84.1293 39.5057C82.883 41.5473 82.2732 43.947 82.2997 46.7045C82.2732 49.5151 82.8963 51.9678 84.169 54.0625C85.4683 56.1572 87.2581 57.7879 89.5384 58.9545C91.8187 60.1212 94.4437 60.7045 97.4134 60.7045Z" fill="url(#paint1_linear_0_1)"/>
<path d="M373.886 108.114C369.22 108.114 365.017 107.186 361.278 105.33C357.54 103.473 354.544 100.928 352.29 97.6932C350.036 94.4583 348.803 90.7727 348.591 86.6364H358.136C358.508 90.322 360.178 93.3712 363.148 95.7841C366.144 98.1705 369.723 99.3636 373.886 99.3636C377.227 99.3636 380.197 98.5814 382.795 97.017C385.42 95.4527 387.475 93.3049 388.96 90.5739C390.472 87.8163 391.227 84.7008 391.227 81.2273C391.227 77.6742 390.445 74.5057 388.881 71.7216C387.343 68.911 385.222 66.697 382.517 65.0795C379.813 63.4621 376.723 62.6401 373.25 62.6136C370.758 62.5871 368.199 62.9716 365.574 63.767C362.949 64.536 360.788 65.5303 359.091 66.75L349.864 65.6364L354.795 25.5455H397.114V34.2955H363.068L360.205 58.3182H360.682C362.352 56.9924 364.447 55.892 366.966 55.017C369.485 54.142 372.11 53.7045 374.841 53.7045C379.826 53.7045 384.267 54.8977 388.165 57.2841C392.089 59.6439 395.165 62.8788 397.392 66.9886C399.646 71.0985 400.773 75.7917 400.773 81.0682C400.773 86.2652 399.606 90.9053 397.273 94.9886C394.966 99.0455 391.784 102.254 387.727 104.614C383.67 106.947 379.057 108.114 373.886 108.114ZM442.504 24.4318C445.845 24.4583 449.186 25.0947 452.527 26.3409C455.868 27.5871 458.917 29.6553 461.675 32.5455C464.432 35.4091 466.646 39.3201 468.317 44.2784C469.987 49.2367 470.822 55.4545 470.822 62.9318C470.822 70.1705 470.133 76.6004 468.754 82.2216C467.402 87.8163 465.44 92.536 462.868 96.3807C460.322 100.225 457.22 103.142 453.561 105.131C449.929 107.119 445.819 108.114 441.232 108.114C436.671 108.114 432.601 107.212 429.021 105.409C425.468 103.58 422.552 101.047 420.271 97.8125C418.018 94.5511 416.572 90.7727 415.936 86.4773H425.641C426.516 90.2159 428.252 93.3049 430.851 95.7443C433.476 98.1572 436.936 99.3636 441.232 99.3636C447.516 99.3636 452.474 96.6193 456.107 91.1307C459.766 85.642 461.595 77.8864 461.595 67.8636H460.959C459.474 70.0909 457.711 72.0133 455.669 73.6307C453.627 75.2481 451.36 76.4943 448.868 77.3693C446.375 78.2443 443.724 78.6818 440.913 78.6818C436.247 78.6818 431.964 77.5284 428.067 75.2216C424.196 72.8883 421.093 69.6932 418.76 65.6364C416.453 61.553 415.3 56.8864 415.3 51.6364C415.3 46.6515 416.413 42.0909 418.641 37.9545C420.894 33.7917 424.05 30.4773 428.107 28.0114C432.19 25.5455 436.989 24.3523 442.504 24.4318ZM442.504 33.1818C439.163 33.1818 436.154 34.017 433.476 35.6875C430.824 37.3314 428.716 39.5587 427.152 42.3693C425.614 45.1534 424.845 48.2424 424.845 51.6364C424.845 55.0303 425.588 58.1193 427.072 60.9034C428.584 63.661 430.639 65.8617 433.237 67.5057C435.862 69.1231 438.845 69.9318 442.186 69.9318C444.705 69.9318 447.052 69.4413 449.226 68.4602C451.4 67.4527 453.296 66.0871 454.913 64.3636C456.557 62.6136 457.843 60.6383 458.771 58.4375C459.699 56.2102 460.163 53.8901 460.163 51.4773C460.163 48.2955 459.394 45.3125 457.857 42.5284C456.345 39.7443 454.25 37.4905 451.572 35.767C448.921 34.0436 445.898 33.1818 442.504 33.1818Z" fill="url(#paint2_linear_0_1)"/>
<circle cx="309.5" cy="50.5" r="6.5" fill="#7D7D7D"/>
<circle cx="309.5" cy="82.5" r="6.5" fill="#7D7D7D"/>
<circle cx="151.5" cy="49.5" r="6.5" fill="#7D7D7D"/>
<circle cx="151.5" cy="81.5" r="6.5" fill="#7D7D7D"/>
<circle cx="509.5" cy="50.5" r="6.5" fill="#7D7D7D"/>
<circle cx="509.5" cy="82.5" r="6.5" fill="#7D7D7D"/>
<mask id="mask0_0_1" style="mask-type:alpha" maskUnits="userSpaceOnUse" x="540" y="0" width="138" height="132">
<rect x="540" width="138" height="132" fill="#D9D9D9"/>
</mask>
<g mask="url(#mask0_0_1)">
<path d="M574.816 110.114C570.149 110.114 565.947 109.186 562.208 107.33C558.469 105.473 555.473 102.928 553.219 99.6932C550.966 96.4583 549.733 92.7727 549.521 88.6364H559.066C559.437 92.322 561.108 95.3712 564.077 97.7841C567.074 100.17 570.653 101.364 574.816 101.364C578.157 101.364 581.127 100.581 583.725 99.017C586.35 97.4527 588.405 95.3049 589.89 92.5739C591.401 89.8163 592.157 86.7008 592.157 83.2273C592.157 79.6742 591.375 76.5057 589.81 73.7216C588.272 70.911 586.151 68.697 583.447 67.0795C580.742 65.4621 577.653 64.6401 574.18 64.6136C571.687 64.5871 569.129 64.9716 566.504 65.767C563.879 66.536 561.718 67.5303 560.021 68.75L550.793 67.6364L555.725 27.5455H598.043V36.2955H563.998L561.134 60.3182H561.612C563.282 58.9924 565.377 57.892 567.896 57.017C570.415 56.142 573.04 55.7045 575.771 55.7045C580.755 55.7045 585.197 56.8977 589.094 59.2841C593.019 61.6439 596.094 64.8788 598.322 68.9886C600.576 73.0985 601.702 77.7917 601.702 83.0682C601.702 88.2652 600.536 92.9053 598.202 96.9886C595.896 101.045 592.714 104.254 588.657 106.614C584.6 108.947 579.987 110.114 574.816 110.114ZM644.07 110.114C638.078 110.114 632.974 108.483 628.758 105.222C624.542 101.934 621.32 97.1742 619.093 90.9432C616.866 84.6856 615.752 77.1288 615.752 68.2727C615.752 59.4697 616.866 51.9527 619.093 45.7216C621.347 39.464 624.582 34.6913 628.798 31.4034C633.04 28.089 638.131 26.4318 644.07 26.4318C650.01 26.4318 655.087 28.089 659.303 31.4034C663.546 34.6913 666.781 39.464 669.008 45.7216C671.262 51.9527 672.388 59.4697 672.388 68.2727C672.388 77.1288 671.275 84.6856 669.048 90.9432C666.82 97.1742 663.599 101.934 659.383 105.222C655.167 108.483 650.063 110.114 644.07 110.114ZM644.07 101.364C650.01 101.364 654.623 98.5 657.911 92.7727C661.199 87.0455 662.843 78.8788 662.843 68.2727C662.843 61.2197 662.087 55.214 660.576 50.2557C659.091 45.2973 656.943 41.5189 654.133 38.9205C651.349 36.322 647.995 35.0227 644.07 35.0227C638.184 35.0227 633.584 37.9261 630.269 43.733C626.955 49.5133 625.298 57.6932 625.298 68.2727C625.298 75.3258 626.04 81.3182 627.525 86.25C629.01 91.1818 631.144 94.9337 633.928 97.5057C636.739 100.078 640.12 101.364 644.07 101.364ZM583.785 246.114C579.118 246.114 574.915 245.186 571.177 243.33C567.438 241.473 564.442 238.928 562.188 235.693C559.934 232.458 558.701 228.773 558.489 224.636H568.035C568.406 228.322 570.076 231.371 573.046 233.784C576.042 236.17 579.622 237.364 583.785 237.364C587.126 237.364 590.095 236.581 592.694 235.017C595.319 233.453 597.374 231.305 598.859 228.574C600.37 225.816 601.126 222.701 601.126 219.227C601.126 215.674 600.344 212.506 598.779 209.722C597.241 206.911 595.12 204.697 592.415 203.08C589.711 201.462 586.622 200.64 583.148 200.614C580.656 200.587 578.097 200.972 575.472 201.767C572.847 202.536 570.686 203.53 568.989 204.75L559.762 203.636L564.694 163.545H607.012V172.295H572.967L570.103 196.318H570.58C572.251 194.992 574.345 193.892 576.864 193.017C579.383 192.142 582.008 191.705 584.739 191.705C589.724 191.705 594.165 192.898 598.063 195.284C601.987 197.644 605.063 200.879 607.29 204.989C609.544 209.098 610.671 213.792 610.671 219.068C610.671 224.265 609.504 228.905 607.171 232.989C604.864 237.045 601.683 240.254 597.626 242.614C593.569 244.947 588.955 246.114 583.785 246.114ZM655.107 163.545V245H645.244V173.886H644.766L624.88 187.091V177.068L645.244 163.545H655.107ZM575.91 382.114C571.243 382.114 567.04 381.186 563.302 379.33C559.563 377.473 556.567 374.928 554.313 371.693C552.059 368.458 550.826 364.773 550.614 360.636H560.16C560.531 364.322 562.201 367.371 565.171 369.784C568.167 372.17 571.747 373.364 575.91 373.364C579.251 373.364 582.22 372.581 584.819 371.017C587.444 369.453 589.499 367.305 590.984 364.574C592.495 361.816 593.251 358.701 593.251 355.227C593.251 351.674 592.469 348.506 590.904 345.722C589.366 342.911 587.245 340.697 584.54 339.08C581.836 337.462 578.747 336.64 575.273 336.614C572.781 336.587 570.222 336.972 567.597 337.767C564.972 338.536 562.811 339.53 561.114 340.75L551.887 339.636L556.819 299.545H599.137V308.295H565.092L562.228 332.318H562.705C564.376 330.992 566.47 329.892 568.989 329.017C571.508 328.142 574.133 327.705 576.864 327.705C581.849 327.705 586.29 328.898 590.188 331.284C594.112 333.644 597.188 336.879 599.415 340.989C601.669 345.098 602.796 349.792 602.796 355.068C602.796 360.265 601.629 364.905 599.296 368.989C596.989 373.045 593.808 376.254 589.751 378.614C585.694 380.947 581.08 382.114 575.91 382.114ZM618.596 381V373.841L645.482 344.409C648.638 340.962 651.236 337.966 653.278 335.42C655.319 332.848 656.831 330.436 657.812 328.182C658.819 325.902 659.323 323.515 659.323 321.023C659.323 318.159 658.634 315.68 657.255 313.585C655.903 311.491 654.047 309.873 651.687 308.733C649.327 307.593 646.675 307.023 643.732 307.023C640.603 307.023 637.872 307.672 635.539 308.972C633.232 310.244 631.442 312.034 630.17 314.341C628.924 316.648 628.3 319.352 628.3 322.455H618.914C618.914 317.682 620.014 313.492 622.215 309.886C624.416 306.28 627.412 303.47 631.204 301.455C635.022 299.439 639.304 298.432 644.05 298.432C648.823 298.432 653.052 299.439 656.738 301.455C660.424 303.47 663.314 306.187 665.408 309.608C667.503 313.028 668.55 316.833 668.55 321.023C668.55 324.019 668.007 326.949 666.92 329.812C665.859 332.65 664.003 335.818 661.352 339.318C658.727 342.792 655.081 347.034 650.414 352.045L632.119 371.614V372.25H669.982V381H618.596ZM574.16 518.114C569.493 518.114 565.29 517.186 561.552 515.33C557.813 513.473 554.817 510.928 552.563 507.693C550.309 504.458 549.076 500.773 548.864 496.636H558.41C558.781 500.322 560.451 503.371 563.421 505.784C566.417 508.17 569.997 509.364 574.16 509.364C577.501 509.364 580.47 508.581 583.069 507.017C585.694 505.453 587.749 503.305 589.234 500.574C590.745 497.816 591.501 494.701 591.501 491.227C591.501 487.674 590.719 484.506 589.154 481.722C587.616 478.911 585.495 476.697 582.79 475.08C580.086 473.462 576.997 472.64 573.523 472.614C571.031 472.587 568.472 472.972 565.847 473.767C563.222 474.536 561.061 475.53 559.364 476.75L550.137 475.636L555.069 435.545H597.387V444.295H563.342L560.478 468.318H560.955C562.626 466.992 564.72 465.892 567.239 465.017C569.758 464.142 572.383 463.705 575.114 463.705C580.099 463.705 584.54 464.898 588.438 467.284C592.362 469.644 595.438 472.879 597.665 476.989C599.919 481.098 601.046 485.792 601.046 491.068C601.046 496.265 599.879 500.905 597.546 504.989C595.239 509.045 592.058 512.254 588.001 514.614C583.944 516.947 579.33 518.114 574.16 518.114ZM644.369 518.114C639.119 518.114 634.439 517.212 630.329 515.409C626.246 513.606 622.997 511.1 620.585 507.892C618.198 504.657 616.899 500.905 616.687 496.636H626.71C626.922 499.261 627.823 501.528 629.414 503.438C631.005 505.32 633.086 506.778 635.658 507.812C638.23 508.847 641.081 509.364 644.21 509.364C647.71 509.364 650.812 508.754 653.516 507.534C656.221 506.314 658.342 504.617 659.88 502.443C661.418 500.269 662.187 497.75 662.187 494.886C662.187 491.89 661.444 489.252 659.96 486.972C658.475 484.665 656.3 482.862 653.437 481.562C650.573 480.263 647.073 479.614 642.937 479.614H636.414V470.864H642.937C646.172 470.864 649.009 470.28 651.448 469.114C653.914 467.947 655.836 466.303 657.215 464.182C658.621 462.061 659.323 459.568 659.323 456.705C659.323 453.947 658.713 451.547 657.494 449.506C656.274 447.464 654.55 445.873 652.323 444.733C650.122 443.593 647.524 443.023 644.528 443.023C641.717 443.023 639.066 443.54 636.573 444.574C634.107 445.581 632.092 447.053 630.528 448.989C628.963 450.898 628.115 453.205 627.982 455.909H618.437C618.596 451.64 619.882 447.902 622.295 444.693C624.708 441.458 627.863 438.939 631.761 437.136C635.685 435.333 639.994 434.432 644.687 434.432C649.725 434.432 654.047 435.453 657.653 437.494C661.259 439.509 664.03 442.174 665.965 445.489C667.901 448.803 668.869 452.383 668.869 456.227C668.869 460.814 667.662 464.725 665.249 467.96C662.863 471.195 659.615 473.436 655.505 474.682V475.318C660.649 476.167 664.666 478.354 667.556 481.881C670.446 485.381 671.891 489.716 671.891 494.886C671.891 499.314 670.685 503.292 668.272 506.818C665.886 510.318 662.624 513.076 658.488 515.091C654.352 517.106 649.645 518.114 644.369 518.114ZM573.886 654.114C569.22 654.114 565.017 653.186 561.278 651.33C557.54 649.473 554.544 646.928 552.29 643.693C550.036 640.458 548.803 636.773 548.591 632.636H558.136C558.508 636.322 560.178 639.371 563.148 641.784C566.144 644.17 569.723 645.364 573.886 645.364C577.227 645.364 580.197 644.581 582.795 643.017C585.42 641.453 587.475 639.305 588.96 636.574C590.472 633.816 591.227 630.701 591.227 627.227C591.227 623.674 590.445 620.506 588.881 617.722C587.343 614.911 585.222 612.697 582.517 611.08C579.813 609.462 576.723 608.64 573.25 608.614C570.758 608.587 568.199 608.972 565.574 609.767C562.949 610.536 560.788 611.53 559.091 612.75L549.864 611.636L554.795 571.545H597.114V580.295H563.068L560.205 604.318H560.682C562.352 602.992 564.447 601.892 566.966 601.017C569.485 600.142 572.11 599.705 574.841 599.705C579.826 599.705 584.267 600.898 588.165 603.284C592.089 605.644 595.165 608.879 597.392 612.989C599.646 617.098 600.773 621.792 600.773 627.068C600.773 632.265 599.606 636.905 597.273 640.989C594.966 645.045 591.784 648.254 587.727 650.614C583.67 652.947 579.057 654.114 573.886 654.114ZM614.663 636.295V628.182L650.459 571.545H656.345V584.114H652.368L625.322 626.909V627.545H673.527V636.295H614.663ZM653.004 653V633.83V630.051V571.545H662.391V653H653.004ZM575.746 790.114C571.079 790.114 566.876 789.186 563.138 787.33C559.399 785.473 556.403 782.928 554.149 779.693C551.895 776.458 550.662 772.773 550.45 768.636H559.996C560.367 772.322 562.037 775.371 565.007 777.784C568.003 780.17 571.583 781.364 575.746 781.364C579.087 781.364 582.056 780.581 584.655 779.017C587.28 777.453 589.335 775.305 590.82 772.574C592.331 769.816 593.087 766.701 593.087 763.227C593.087 759.674 592.304 756.506 590.74 753.722C589.202 750.911 587.081 748.697 584.376 747.08C581.672 745.462 578.583 744.64 575.109 744.614C572.617 744.587 570.058 744.972 567.433 745.767C564.808 746.536 562.647 747.53 560.95 748.75L551.723 747.636L556.655 707.545H598.973V716.295H564.928L562.064 740.318H562.541C564.212 738.992 566.306 737.892 568.825 737.017C571.344 736.142 573.969 735.705 576.7 735.705C581.685 735.705 586.126 736.898 590.024 739.284C593.948 741.644 597.024 744.879 599.251 748.989C601.505 753.098 602.632 757.792 602.632 763.068C602.632 768.265 601.465 772.905 599.132 776.989C596.825 781.045 593.643 784.254 589.587 786.614C585.53 788.947 580.916 790.114 575.746 790.114ZM643.886 790.114C639.22 790.114 635.017 789.186 631.278 787.33C627.54 785.473 624.544 782.928 622.29 779.693C620.036 776.458 618.803 772.773 618.591 768.636H628.136C628.508 772.322 630.178 775.371 633.148 777.784C636.144 780.17 639.723 781.364 643.886 781.364C647.227 781.364 650.197 780.581 652.795 779.017C655.42 777.453 657.475 775.305 658.96 772.574C660.472 769.816 661.227 766.701 661.227 763.227C661.227 759.674 660.445 756.506 658.881 753.722C657.343 750.911 655.222 748.697 652.517 747.08C649.813 745.462 646.723 744.64 643.25 744.614C640.758 744.587 638.199 744.972 635.574 745.767C632.949 746.536 630.788 747.53 629.091 748.75L619.864 747.636L624.795 707.545H667.114V716.295H633.068L630.205 740.318H630.682C632.352 738.992 634.447 737.892 636.966 737.017C639.485 736.142 642.11 735.705 644.841 735.705C649.826 735.705 654.267 736.898 658.165 739.284C662.089 741.644 665.165 744.879 667.392 748.989C669.646 753.098 670.773 757.792 670.773 763.068C670.773 768.265 669.606 772.905 667.273 776.989C664.966 781.045 661.784 784.254 657.727 786.614C653.67 788.947 649.057 790.114 643.886 790.114ZM574.871 926.114C570.204 926.114 566.001 925.186 562.263 923.33C558.524 921.473 555.528 918.928 553.274 915.693C551.02 912.458 549.787 908.773 549.575 904.636H559.121C559.492 908.322 561.162 911.371 564.132 913.784C567.128 916.17 570.708 917.364 574.871 917.364C578.212 917.364 581.181 916.581 583.78 915.017C586.405 913.453 588.46 911.305 589.945 908.574C591.456 905.816 592.212 902.701 592.212 899.227C592.212 895.674 591.429 892.506 589.865 889.722C588.327 886.911 586.206 884.697 583.501 883.08C580.797 881.462 577.708 880.64 574.234 880.614C571.742 880.587 569.183 880.972 566.558 881.767C563.933 882.536 561.772 883.53 560.075 884.75L550.848 883.636L555.78 843.545H598.098V852.295H564.053L561.189 876.318H561.666C563.337 874.992 565.431 873.892 567.95 873.017C570.469 872.142 573.094 871.705 575.825 871.705C580.81 871.705 585.251 872.898 589.149 875.284C593.073 877.644 596.149 880.879 598.376 884.989C600.63 889.098 601.757 893.792 601.757 899.068C601.757 904.265 600.59 908.905 598.257 912.989C595.95 917.045 592.768 920.254 588.712 922.614C584.655 924.947 580.041 926.114 574.871 926.114ZM644.602 926.114C641.261 926.061 637.92 925.424 634.58 924.205C631.239 922.985 628.189 920.93 625.432 918.04C622.674 915.123 620.46 911.186 618.79 906.227C617.119 901.242 616.284 894.985 616.284 887.455C616.284 880.242 616.96 873.852 618.312 868.284C619.665 862.689 621.627 857.983 624.199 854.165C626.771 850.32 629.873 847.403 633.506 845.415C637.165 843.426 641.288 842.432 645.875 842.432C650.436 842.432 654.492 843.347 658.045 845.176C661.625 846.979 664.542 849.498 666.795 852.733C669.049 855.968 670.508 859.693 671.17 863.909H661.466C660.564 860.25 658.814 857.214 656.216 854.801C653.617 852.388 650.17 851.182 645.875 851.182C639.564 851.182 634.593 853.926 630.96 859.415C627.354 864.903 625.538 872.606 625.511 882.523H626.148C627.633 880.269 629.396 878.347 631.438 876.756C633.506 875.138 635.786 873.892 638.278 873.017C640.771 872.142 643.409 871.705 646.193 871.705C650.86 871.705 655.129 872.871 659 875.205C662.871 877.511 665.973 880.706 668.307 884.79C670.64 888.847 671.807 893.5 671.807 898.75C671.807 903.788 670.68 908.402 668.426 912.591C666.172 916.754 663.004 920.068 658.92 922.534C654.864 924.973 650.091 926.167 644.602 926.114ZM644.602 917.364C647.943 917.364 650.939 916.528 653.591 914.858C656.269 913.187 658.377 910.947 659.915 908.136C661.479 905.326 662.261 902.197 662.261 898.75C662.261 895.383 661.506 892.32 659.994 889.562C658.509 886.778 656.455 884.564 653.83 882.92C651.231 881.277 648.261 880.455 644.92 880.455C642.402 880.455 640.055 880.958 637.881 881.966C635.706 882.947 633.797 884.299 632.153 886.023C630.536 887.746 629.263 889.722 628.335 891.949C627.407 894.15 626.943 896.47 626.943 898.909C626.943 902.144 627.699 905.167 629.21 907.977C630.748 910.788 632.843 913.055 635.494 914.778C638.172 916.502 641.208 917.364 644.602 917.364ZM577.824 1062.11C573.157 1062.11 568.955 1061.19 565.216 1059.33C561.477 1057.47 558.481 1054.93 556.227 1051.69C553.973 1048.46 552.741 1044.77 552.528 1040.64H562.074C562.445 1044.32 564.116 1047.37 567.085 1049.78C570.081 1052.17 573.661 1053.36 577.824 1053.36C581.165 1053.36 584.134 1052.58 586.733 1051.02C589.358 1049.45 591.413 1047.3 592.898 1044.57C594.409 1041.82 595.165 1038.7 595.165 1035.23C595.165 1031.67 594.383 1028.51 592.818 1025.72C591.28 1022.91 589.159 1020.7 586.455 1019.08C583.75 1017.46 580.661 1016.64 577.188 1016.61C574.695 1016.59 572.136 1016.97 569.511 1017.77C566.886 1018.54 564.725 1019.53 563.028 1020.75L553.801 1019.64L558.733 979.545H601.051V988.295H567.006L564.142 1012.32H564.619C566.29 1010.99 568.384 1009.89 570.903 1009.02C573.422 1008.14 576.047 1007.7 578.778 1007.7C583.763 1007.7 588.205 1008.9 592.102 1011.28C596.027 1013.64 599.102 1016.88 601.33 1020.99C603.583 1025.1 604.71 1029.79 604.71 1035.07C604.71 1040.27 603.544 1044.91 601.21 1048.99C598.903 1053.05 595.722 1056.25 591.665 1058.61C587.608 1060.95 582.994 1062.11 577.824 1062.11ZM623.055 1061L659.487 988.932V988.295H617.487V979.545H669.669V988.773L633.396 1061H623.055ZM575.308 1198.11C570.642 1198.11 566.439 1197.19 562.7 1195.33C558.962 1193.47 555.965 1190.93 553.712 1187.69C551.458 1184.46 550.225 1180.77 550.013 1176.64H559.558C559.929 1180.32 561.6 1183.37 564.57 1185.78C567.566 1188.17 571.145 1189.36 575.308 1189.36C578.649 1189.36 581.619 1188.58 584.217 1187.02C586.842 1185.45 588.897 1183.3 590.382 1180.57C591.893 1177.82 592.649 1174.7 592.649 1171.23C592.649 1167.67 591.867 1164.51 590.303 1161.72C588.765 1158.91 586.643 1156.7 583.939 1155.08C581.234 1153.46 578.145 1152.64 574.672 1152.61C572.179 1152.59 569.621 1152.97 566.996 1153.77C564.371 1154.54 562.21 1155.53 560.513 1156.75L551.286 1155.64L556.217 1115.55H598.536V1124.3H564.49L561.626 1148.32H562.104C563.774 1146.99 565.869 1145.89 568.388 1145.02C570.907 1144.14 573.532 1143.7 576.263 1143.7C581.248 1143.7 585.689 1144.9 589.587 1147.28C593.511 1149.64 596.587 1152.88 598.814 1156.99C601.068 1161.1 602.195 1165.79 602.195 1171.07C602.195 1176.27 601.028 1180.91 598.695 1184.99C596.388 1189.05 593.206 1192.25 589.149 1194.61C585.092 1196.95 580.479 1198.11 575.308 1198.11ZM644.085 1198.11C638.623 1198.11 633.797 1197.15 629.608 1195.21C625.445 1193.25 622.197 1190.56 619.864 1187.14C617.53 1183.69 616.377 1179.77 616.403 1175.36C616.377 1171.92 617.053 1168.73 618.432 1165.82C619.811 1162.87 621.693 1160.42 624.08 1158.46C626.492 1156.47 629.184 1155.21 632.153 1154.68V1154.2C628.256 1153.2 625.153 1151.01 622.847 1147.64C620.54 1144.25 619.4 1140.39 619.426 1136.07C619.4 1131.93 620.447 1128.23 622.568 1124.97C624.689 1121.71 627.606 1119.14 631.318 1117.26C635.057 1115.37 639.313 1114.43 644.085 1114.43C648.805 1114.43 653.021 1115.37 656.733 1117.26C660.445 1119.14 663.362 1121.71 665.483 1124.97C667.631 1128.23 668.718 1131.93 668.744 1136.07C668.718 1140.39 667.538 1144.25 665.205 1147.64C662.898 1151.01 659.835 1153.2 656.017 1154.2V1154.68C658.96 1155.21 661.612 1156.47 663.972 1158.46C666.331 1160.42 668.214 1162.87 669.619 1165.82C671.025 1168.73 671.741 1171.92 671.767 1175.36C671.741 1179.77 670.547 1183.69 668.188 1187.14C665.854 1190.56 662.606 1193.25 658.443 1195.21C654.307 1197.15 649.521 1198.11 644.085 1198.11ZM644.085 1189.36C647.771 1189.36 650.953 1188.77 653.631 1187.57C656.309 1186.38 658.377 1184.7 659.835 1182.52C661.294 1180.35 662.036 1177.8 662.062 1174.89C662.036 1171.81 661.241 1169.09 659.676 1166.73C658.112 1164.37 655.977 1162.52 653.273 1161.16C650.595 1159.81 647.532 1159.14 644.085 1159.14C640.612 1159.14 637.509 1159.81 634.778 1161.16C632.074 1162.52 629.939 1164.37 628.375 1166.73C626.837 1169.09 626.081 1171.81 626.108 1174.89C626.081 1177.8 626.784 1180.35 628.216 1182.52C629.674 1184.7 631.756 1186.38 634.46 1187.57C637.165 1188.77 640.373 1189.36 644.085 1189.36ZM644.085 1150.7C647.002 1150.7 649.587 1150.12 651.841 1148.95C654.121 1147.79 655.911 1146.16 657.21 1144.06C658.509 1141.97 659.172 1139.52 659.199 1136.7C659.172 1133.95 658.523 1131.55 657.25 1129.51C655.977 1127.44 654.214 1125.85 651.96 1124.73C649.706 1123.59 647.081 1123.02 644.085 1123.02C641.036 1123.02 638.371 1123.59 636.091 1124.73C633.811 1125.85 632.047 1127.44 630.801 1129.51C629.555 1131.55 628.945 1133.95 628.972 1136.7C628.945 1139.52 629.568 1141.97 630.841 1144.06C632.14 1146.16 633.93 1147.79 636.21 1148.95C638.491 1150.12 641.116 1150.7 644.085 1150.7ZM574.871 1334.11C570.204 1334.11 566.001 1333.19 562.263 1331.33C558.524 1329.47 555.528 1326.93 553.274 1323.69C551.02 1320.46 549.787 1316.77 549.575 1312.64H559.121C559.492 1316.32 561.162 1319.37 564.132 1321.78C567.128 1324.17 570.708 1325.36 574.871 1325.36C578.212 1325.36 581.181 1324.58 583.78 1323.02C586.405 1321.45 588.46 1319.3 589.945 1316.57C591.456 1313.82 592.212 1310.7 592.212 1307.23C592.212 1303.67 591.429 1300.51 589.865 1297.72C588.327 1294.91 586.206 1292.7 583.501 1291.08C580.797 1289.46 577.708 1288.64 574.234 1288.61C571.742 1288.59 569.183 1288.97 566.558 1289.77C563.933 1290.54 561.772 1291.53 560.075 1292.75L550.848 1291.64L555.78 1251.55H598.098V1260.3H564.053L561.189 1284.32H561.666C563.337 1282.99 565.431 1281.89 567.95 1281.02C570.469 1280.14 573.094 1279.7 575.825 1279.7C580.81 1279.7 585.251 1280.9 589.149 1283.28C593.073 1285.64 596.149 1288.88 598.376 1292.99C600.63 1297.1 601.757 1301.79 601.757 1307.07C601.757 1312.27 600.59 1316.91 598.257 1320.99C595.95 1325.05 592.768 1328.25 588.712 1330.61C584.655 1332.95 580.041 1334.11 574.871 1334.11ZM643.489 1250.43C646.83 1250.46 650.17 1251.09 653.511 1252.34C656.852 1253.59 659.902 1255.66 662.659 1258.55C665.417 1261.41 667.631 1265.32 669.301 1270.28C670.972 1275.24 671.807 1281.45 671.807 1288.93C671.807 1296.17 671.117 1302.6 669.739 1308.22C668.386 1313.82 666.424 1318.54 663.852 1322.38C661.307 1326.23 658.205 1329.14 654.545 1331.13C650.913 1333.12 646.803 1334.11 642.216 1334.11C637.655 1334.11 633.585 1333.21 630.006 1331.41C626.453 1329.58 623.536 1327.05 621.256 1323.81C619.002 1320.55 617.557 1316.77 616.92 1312.48H626.625C627.5 1316.22 629.237 1319.3 631.835 1321.74C634.46 1324.16 637.92 1325.36 642.216 1325.36C648.5 1325.36 653.458 1322.62 657.091 1317.13C660.75 1311.64 662.58 1303.89 662.58 1293.86H661.943C660.458 1296.09 658.695 1298.01 656.653 1299.63C654.612 1301.25 652.345 1302.49 649.852 1303.37C647.36 1304.24 644.708 1304.68 641.898 1304.68C637.231 1304.68 632.949 1303.53 629.051 1301.22C625.18 1298.89 622.078 1295.69 619.744 1291.64C617.438 1287.55 616.284 1282.89 616.284 1277.64C616.284 1272.65 617.398 1268.09 619.625 1263.95C621.879 1259.79 625.034 1256.48 629.091 1254.01C633.174 1251.55 637.973 1250.35 643.489 1250.43ZM643.489 1259.18C640.148 1259.18 637.138 1260.02 634.46 1261.69C631.809 1263.33 629.701 1265.56 628.136 1268.37C626.598 1271.15 625.83 1274.24 625.83 1277.64C625.83 1281.03 626.572 1284.12 628.057 1286.9C629.568 1289.66 631.623 1291.86 634.222 1293.51C636.847 1295.12 639.83 1295.93 643.17 1295.93C645.689 1295.93 648.036 1295.44 650.21 1294.46C652.384 1293.45 654.28 1292.09 655.898 1290.36C657.542 1288.61 658.828 1286.64 659.756 1284.44C660.684 1282.21 661.148 1279.89 661.148 1277.48C661.148 1274.3 660.379 1271.31 658.841 1268.53C657.33 1265.74 655.235 1263.49 652.557 1261.77C649.905 1260.04 646.883 1259.18 643.489 1259.18Z" fill="url(#paint3_linear_0_1)"/>
</g>
<path d="M210.461 155H208.246V149.313H202.524V155H200.301V142.203H202.524V147.529H208.246V142.203H210.461V155ZM223.311 148.936C223.311 150.189 223.094 151.291 222.66 152.24C222.227 153.184 221.605 153.91 220.797 154.42C219.994 154.924 219.068 155.176 218.02 155.176C216.982 155.176 216.057 154.924 215.242 154.42C214.434 153.91 213.807 153.187 213.361 152.249C212.922 151.312 212.699 150.23 212.693 149.006V148.285C212.693 147.037 212.913 145.936 213.353 144.98C213.798 144.025 214.422 143.296 215.225 142.792C216.033 142.282 216.959 142.027 218.002 142.027C219.045 142.027 219.968 142.279 220.771 142.783C221.579 143.281 222.203 144.002 222.643 144.945C223.082 145.883 223.305 146.976 223.311 148.224V148.936ZM221.087 148.268C221.087 146.85 220.817 145.763 220.278 145.007C219.745 144.251 218.986 143.873 218.002 143.873C217.041 143.873 216.288 144.251 215.743 145.007C215.204 145.757 214.929 146.82 214.917 148.197V148.936C214.917 150.342 215.189 151.429 215.734 152.196C216.285 152.964 217.047 153.348 218.02 153.348C219.004 153.348 219.76 152.973 220.287 152.223C220.82 151.473 221.087 150.377 221.087 148.936V148.268ZM234.886 142.203V150.755C234.886 152.114 234.449 153.192 233.576 153.989C232.709 154.78 231.552 155.176 230.104 155.176C228.64 155.176 227.477 154.786 226.615 154.007C225.754 153.222 225.323 152.135 225.323 150.746V142.203H227.538V150.764C227.538 151.619 227.755 152.272 228.188 152.724C228.622 153.175 229.261 153.4 230.104 153.4C231.815 153.4 232.671 152.498 232.671 150.693V142.203H234.886ZM241.97 150.069H239.491V155H237.268V142.203H241.768C243.244 142.203 244.384 142.534 245.187 143.196C245.989 143.858 246.391 144.816 246.391 146.07C246.391 146.926 246.183 147.644 245.767 148.224C245.356 148.798 244.782 149.24 244.044 149.551L246.918 154.886V155H244.536L241.97 150.069ZM239.491 148.285H241.776C242.526 148.285 243.112 148.098 243.534 147.723C243.956 147.342 244.167 146.823 244.167 146.167C244.167 145.481 243.971 144.951 243.578 144.576C243.191 144.201 242.611 144.008 241.838 143.996H239.491V148.285ZM255.188 151.704C255.188 151.142 254.989 150.708 254.591 150.403C254.198 150.099 253.486 149.791 252.455 149.48C251.424 149.17 250.604 148.824 249.994 148.443C248.828 147.711 248.245 146.756 248.245 145.578C248.245 144.547 248.664 143.697 249.502 143.029C250.346 142.361 251.438 142.027 252.78 142.027C253.671 142.027 254.465 142.191 255.162 142.52C255.859 142.848 256.407 143.316 256.806 143.926C257.204 144.529 257.403 145.2 257.403 145.938H255.188C255.188 145.271 254.978 144.749 254.556 144.374C254.14 143.993 253.542 143.803 252.763 143.803C252.036 143.803 251.471 143.958 251.066 144.269C250.668 144.579 250.469 145.013 250.469 145.569C250.469 146.038 250.686 146.431 251.119 146.747C251.553 147.058 252.268 147.362 253.264 147.661C254.26 147.954 255.06 148.291 255.663 148.672C256.267 149.047 256.709 149.48 256.99 149.973C257.271 150.459 257.412 151.03 257.412 151.687C257.412 152.753 257.002 153.603 256.182 154.235C255.367 154.862 254.26 155.176 252.859 155.176C251.934 155.176 251.081 155.006 250.302 154.666C249.528 154.32 248.925 153.846 248.491 153.242C248.063 152.639 247.85 151.936 247.85 151.133H250.073C250.073 151.859 250.313 152.422 250.794 152.82C251.274 153.219 251.963 153.418 252.859 153.418C253.633 153.418 254.213 153.263 254.6 152.952C254.992 152.636 255.188 152.22 255.188 151.704Z" fill="white"/>
<path d="M377.184 142.203L380.875 152.012L384.558 142.203H387.432V155H385.217V150.781L385.437 145.139L381.657 155H380.066L376.296 145.147L376.516 150.781V155H374.301V142.203H377.184ZM392.415 155H390.2V142.203H392.415V155ZM405.3 155H403.076L397.372 145.921V155H395.148V142.203H397.372L403.094 151.317V142.203H405.3V155ZM417.288 142.203V150.755C417.288 152.114 416.852 153.192 415.979 153.989C415.111 154.78 413.954 155.176 412.507 155.176C411.042 155.176 409.879 154.786 409.018 154.007C408.156 153.222 407.726 152.135 407.726 150.746V142.203H409.94V150.764C409.94 151.619 410.157 152.272 410.591 152.724C411.024 153.175 411.663 153.4 412.507 153.4C414.218 153.4 415.073 152.498 415.073 150.693V142.203H417.288ZM428.916 143.996H424.926V155H422.72V143.996H418.765V142.203H428.916V143.996ZM438.083 149.287H432.827V153.225H438.971V155H430.604V142.203H438.909V143.996H432.827V147.529H438.083V149.287ZM447.47 151.704C447.47 151.142 447.271 150.708 446.872 150.403C446.479 150.099 445.768 149.791 444.736 149.48C443.705 149.17 442.885 148.824 442.275 148.443C441.109 147.711 440.526 146.756 440.526 145.578C440.526 144.547 440.945 143.697 441.783 143.029C442.627 142.361 443.72 142.027 445.062 142.027C445.952 142.027 446.746 142.191 447.443 142.52C448.141 142.848 448.688 143.316 449.087 143.926C449.485 144.529 449.685 145.2 449.685 145.938H447.47C447.47 145.271 447.259 144.749 446.837 144.374C446.421 143.993 445.823 143.803 445.044 143.803C444.317 143.803 443.752 143.958 443.348 144.269C442.949 144.579 442.75 145.013 442.75 145.569C442.75 146.038 442.967 146.431 443.4 146.747C443.834 147.058 444.549 147.362 445.545 147.661C446.541 147.954 447.341 148.291 447.944 148.672C448.548 149.047 448.99 149.48 449.271 149.973C449.553 150.459 449.693 151.03 449.693 151.687C449.693 152.753 449.283 153.603 448.463 154.235C447.648 154.862 446.541 155.176 445.141 155.176C444.215 155.176 443.362 155.006 442.583 154.666C441.81 154.32 441.206 153.846 440.772 153.242C440.345 152.639 440.131 151.936 440.131 151.133H442.354C442.354 151.859 442.595 152.422 443.075 152.82C443.556 153.219 444.244 153.418 445.141 153.418C445.914 153.418 446.494 153.263 446.881 152.952C447.273 152.636 447.47 152.22 447.47 151.704Z" fill="white"/>
<path d="M582.989 151.704C582.989 151.142 582.79 150.708 582.392 150.403C581.999 150.099 581.287 149.791 580.256 149.48C579.225 149.17 578.404 148.824 577.795 148.443C576.629 147.711 576.046 146.756 576.046 145.578C576.046 144.547 576.465 143.697 577.303 143.029C578.146 142.361 579.239 142.027 580.581 142.027C581.472 142.027 582.266 142.191 582.963 142.52C583.66 142.848 584.208 143.316 584.606 143.926C585.005 144.529 585.204 145.2 585.204 145.938H582.989C582.989 145.271 582.778 144.749 582.356 144.374C581.94 143.993 581.343 143.803 580.563 143.803C579.837 143.803 579.271 143.958 578.867 144.269C578.469 144.579 578.27 145.013 578.27 145.569C578.27 146.038 578.486 146.431 578.92 146.747C579.354 147.058 580.068 147.362 581.064 147.661C582.061 147.954 582.86 148.291 583.464 148.672C584.067 149.047 584.51 149.48 584.791 149.973C585.072 150.459 585.213 151.03 585.213 151.687C585.213 152.753 584.803 153.603 583.982 154.235C583.168 154.862 582.061 155.176 580.66 155.176C579.734 155.176 578.882 155.006 578.103 154.666C577.329 154.32 576.726 153.846 576.292 153.242C575.864 152.639 575.65 151.936 575.65 151.133H577.874C577.874 151.859 578.114 152.422 578.595 152.82C579.075 153.219 579.764 153.418 580.66 153.418C581.434 153.418 582.014 153.263 582.4 152.952C582.793 152.636 582.989 152.22 582.989 151.704ZM594.644 149.287H589.388V153.225H595.531V155H587.164V142.203H595.47V143.996H589.388V147.529H594.644V149.287ZM607.106 150.834C606.978 152.199 606.474 153.266 605.595 154.033C604.716 154.795 603.547 155.176 602.088 155.176C601.068 155.176 600.169 154.936 599.39 154.455C598.616 153.969 598.019 153.28 597.597 152.39C597.175 151.499 596.955 150.465 596.938 149.287V148.092C596.938 146.885 597.151 145.821 597.579 144.901C598.007 143.981 598.619 143.272 599.416 142.774C600.219 142.276 601.145 142.027 602.193 142.027C603.605 142.027 604.742 142.411 605.604 143.179C606.465 143.946 606.966 145.03 607.106 146.431H604.892C604.786 145.511 604.517 144.849 604.083 144.444C603.655 144.034 603.025 143.829 602.193 143.829C601.227 143.829 600.482 144.184 599.961 144.893C599.445 145.596 599.182 146.63 599.17 147.995V149.129C599.17 150.512 599.416 151.566 599.908 152.293C600.406 153.02 601.133 153.383 602.088 153.383C602.961 153.383 603.617 153.187 604.057 152.794C604.496 152.401 604.774 151.748 604.892 150.834H607.106ZM619.314 148.936C619.314 150.189 619.098 151.291 618.664 152.24C618.23 153.184 617.609 153.91 616.801 154.42C615.998 154.924 615.072 155.176 614.023 155.176C612.986 155.176 612.061 154.924 611.246 154.42C610.438 153.91 609.811 153.187 609.365 152.249C608.926 151.312 608.703 150.23 608.697 149.006V148.285C608.697 147.037 608.917 145.936 609.356 144.98C609.802 144.025 610.426 143.296 611.229 142.792C612.037 142.282 612.963 142.027 614.006 142.027C615.049 142.027 615.972 142.279 616.774 142.783C617.583 143.281 618.207 144.002 618.646 144.945C619.086 145.883 619.309 146.976 619.314 148.224V148.936ZM617.091 148.268C617.091 146.85 616.821 145.763 616.282 145.007C615.749 144.251 614.99 143.873 614.006 143.873C613.045 143.873 612.292 144.251 611.747 145.007C611.208 145.757 610.933 146.82 610.921 148.197V148.936C610.921 150.342 611.193 151.429 611.738 152.196C612.289 152.964 613.051 153.348 614.023 153.348C615.008 153.348 615.764 152.973 616.291 152.223C616.824 151.473 617.091 150.377 617.091 148.936V148.268ZM631.681 155H629.457L623.753 145.921V155H621.529V142.203H623.753L629.475 151.317V142.203H631.681V155ZM640.997 151.704C640.997 151.142 640.798 150.708 640.399 150.403C640.007 150.099 639.295 149.791 638.264 149.48C637.232 149.17 636.412 148.824 635.803 148.443C634.637 147.711 634.054 146.756 634.054 145.578C634.054 144.547 634.473 143.697 635.311 143.029C636.154 142.361 637.247 142.027 638.589 142.027C639.479 142.027 640.273 142.191 640.971 142.52C641.668 142.848 642.216 143.316 642.614 143.926C643.013 144.529 643.212 145.2 643.212 145.938H640.997C640.997 145.271 640.786 144.749 640.364 144.374C639.948 143.993 639.351 143.803 638.571 143.803C637.845 143.803 637.279 143.958 636.875 144.269C636.477 144.579 636.277 145.013 636.277 145.569C636.277 146.038 636.494 146.431 636.928 146.747C637.361 147.058 638.076 147.362 639.072 147.661C640.068 147.954 640.868 148.291 641.472 148.672C642.075 149.047 642.518 149.48 642.799 149.973C643.08 150.459 643.221 151.03 643.221 151.687C643.221 152.753 642.811 153.603 641.99 154.235C641.176 154.862 640.068 155.176 638.668 155.176C637.742 155.176 636.89 155.006 636.11 154.666C635.337 154.32 634.733 153.846 634.3 153.242C633.872 152.639 633.658 151.936 633.658 151.133H635.882C635.882 151.859 636.122 152.422 636.603 152.82C637.083 153.219 637.771 153.418 638.668 153.418C639.441 153.418 640.021 153.263 640.408 152.952C640.801 152.636 640.997 152.22 640.997 151.704Z" fill="white"/>
<path d="M47.3008 155V142.203H51.0801C52.2109 142.203 53.2129 142.455 54.0859 142.959C54.9648 143.463 55.6445 144.178 56.125 145.104C56.6055 146.029 56.8457 147.09 56.8457 148.285V148.927C56.8457 150.14 56.6025 151.206 56.1162 152.126C55.6357 153.046 54.9473 153.755 54.0508 154.253C53.1602 154.751 52.1377 155 50.9834 155H47.3008ZM49.5244 143.996V153.225H50.9746C52.1406 153.225 53.0342 152.861 53.6553 152.135C54.2822 151.402 54.6016 150.354 54.6133 148.988V148.276C54.6133 146.888 54.3115 145.827 53.708 145.095C53.1045 144.362 52.2285 143.996 51.0801 143.996H49.5244ZM66.0303 152.021H61.0732L60.0361 155H57.7246L62.5586 142.203H64.5537L69.3965 155H67.0762L66.0303 152.021ZM61.6973 150.228H65.4062L63.5518 144.919L61.6973 150.228ZM73.7119 148.268L76.6562 142.203H79.1172L74.8281 150.289V155H72.5957V150.289L68.2979 142.203H70.7676L73.7119 148.268ZM87.0537 151.704C87.0537 151.142 86.8545 150.708 86.4561 150.403C86.0635 150.099 85.3516 149.791 84.3203 149.48C83.2891 149.17 82.4688 148.824 81.8594 148.443C80.6934 147.711 80.1104 146.756 80.1104 145.578C80.1104 144.547 80.5293 143.697 81.3672 143.029C82.2109 142.361 83.3037 142.027 84.6455 142.027C85.5361 142.027 86.3301 142.191 87.0273 142.52C87.7246 142.848 88.2725 143.316 88.6709 143.926C89.0693 144.529 89.2686 145.2 89.2686 145.938H87.0537C87.0537 145.271 86.8428 144.749 86.4209 144.374C86.0049 143.993 85.4072 143.803 84.6279 143.803C83.9014 143.803 83.3359 143.958 82.9316 144.269C82.5332 144.579 82.334 145.013 82.334 145.569C82.334 146.038 82.5508 146.431 82.9844 146.747C83.418 147.058 84.1328 147.362 85.1289 147.661C86.125 147.954 86.9248 148.291 87.5283 148.672C88.1318 149.047 88.5742 149.48 88.8555 149.973C89.1367 150.459 89.2773 151.03 89.2773 151.687C89.2773 152.753 88.8672 153.603 88.0469 154.235C87.2324 154.862 86.125 155.176 84.7246 155.176C83.7988 155.176 82.9463 155.006 82.167 154.666C81.3936 154.32 80.79 153.846 80.3564 153.242C79.9287 152.639 79.7148 151.936 79.7148 151.133H81.9385C81.9385 151.859 82.1787 152.422 82.6592 152.82C83.1396 153.219 83.8281 153.418 84.7246 153.418C85.498 153.418 86.0781 153.263 86.4648 152.952C86.8574 152.636 87.0537 152.22 87.0537 151.704Z" fill="white"/>
<defs>
<linearGradient id="paint0_linear_0_1" x1="198.83" y1="168.185" x2="303.672" y2="126.922" gradientUnits="userSpaceOnUse">
<stop stop-color="#EEF1F0"/>
<stop offset="1" stop-color="#71757E"/>
</linearGradient>
<linearGradient id="paint1_linear_0_1" x1="25.8698" y1="168.185" x2="151.938" y2="102.501" gradientUnits="userSpaceOnUse">
<stop stop-color="#EEF1F0"/>
<stop offset="1" stop-color="#71757E"/>
</linearGradient>
<linearGradient id="paint2_linear_0_1" x1="372.87" y1="168.185" x2="498.938" y2="102.501" gradientUnits="userSpaceOnUse">
<stop stop-color="#EEF1F0"/>
<stop offset="1" stop-color="#71757E"/>
</linearGradient>
<linearGradient id="paint3_linear_0_1" x1="573.106" y1="1701.85" x2="734.107" y2="1693.4" gradientUnits="userSpaceOnUse">
<stop stop-color="#EEF1F0"/>
<stop offset="1" stop-color="#71757E"/>
</linearGradient>
</defs>
</svg>
